<svg width="36" height="26" viewBox="0 0 36 26" fill="none" xmlns="http://www.w3.org/2000/svg">
<path d="M6.26553 21.281H10.0187C10.4681 21.281 10.8306 21.144 11.1064 20.87C11.3821 20.596 11.52 20.2459 11.52 19.8197V17.0035C11.52 16.5671 11.3821 16.217 11.1064 15.9532C10.8306 15.6792 10.4681 15.5422 10.0187 15.5422H6.26553C5.81617 15.5422 5.45362 15.6792 5.17787 15.9532C4.90213 16.217 4.76426 16.5671 4.76426 17.0035V19.8197C4.76426 20.2459 4.90213 20.596 5.17787 20.87C5.45362 21.144 5.81617 21.281 6.26553 21.281ZM0 9.59016H36V6.13466H0V9.59016ZM4.81021 26C3.20681 26 2.0017 25.6042 1.19489 24.8126C0.398298 24.0312 0 22.8591 0 21.2963V4.71897C0 3.14598 0.398298 1.96877 1.19489 1.18735C2.0017 0.395785 3.20681 0 4.81021 0H31.1898C32.7932 0 33.9932 0.395785 34.7898 1.18735C35.5966 1.97892 36 3.15613 36 4.71897V21.2963C36 22.8591 35.5966 24.0312 34.7898 24.8126C33.9932 25.6042 32.7932 26 31.1898 26H4.81021Z" fill="white"/>
</svg>
