<svg width="34" height="30" viewBox="0 0 34 30" fill="none" xmlns="http://www.w3.org/2000/svg">
<path d="M20.6678 27.7V18.2571C20.6678 17.9238 20.5681 17.6619 20.3687 17.4714C20.1787 17.2714 19.9176 17.1714 19.5853 17.1714H14.4147C14.0919 17.1714 13.826 17.2714 13.6171 17.4714C13.4177 17.6619 13.318 17.9238 13.318 18.2571V27.7H20.6678ZM4.44407 26.8429V15.5286L16.1525 5.68571C16.7222 5.2 17.292 5.2 17.8618 5.68571L29.5702 15.5286V26.8429C29.5702 27.8429 29.2853 28.619 28.7155 29.1714C28.1553 29.7238 27.3766 30 26.3796 30H7.64893C6.64237 30 5.85421 29.7238 5.28446 29.1714C4.7242 28.619 4.44407 27.8429 4.44407 26.8429ZM0 14.1C0 13.7286 0.151934 13.419 0.455802 13.1714L15.2979 0.671429C15.8296 0.22381 16.3994 0 17.0071 0C17.6244 0 18.1989 0.22381 18.7306 0.671429L33.5584 13.1714C33.8528 13.419 34 13.7429 34 14.1429C34 14.4857 33.8813 14.7571 33.6439 14.9571C33.4065 15.1476 33.1216 15.2429 32.7893 15.2429C32.5899 15.2429 32.4047 15.1952 32.2338 15.1C32.0723 15.0048 31.9204 14.9 31.778 14.7857L17.5199 2.78571C17.3585 2.64286 17.1875 2.57143 17.0071 2.57143C16.8362 2.57143 16.67 2.64286 16.5086 2.78571L2.25052 14.7857C2.09859 14.9 1.93716 15.0048 1.76623 15.1C1.6048 15.1952 1.42438 15.2429 1.22497 15.2429C0.845133 15.2429 0.546013 15.1286 0.327608 14.9C0.109203 14.6619 0 14.3952 0 14.1ZM25.995 7.65714V4.08571C25.995 3.77143 26.0899 3.52381 26.2799 3.34286C26.4698 3.15238 26.7167 3.05714 27.0205 3.05714H28.5446C28.858 3.05714 29.1049 3.15238 29.2853 3.34286C29.4752 3.52381 29.5702 3.77143 29.5702 4.08571V10.6857L25.995 7.65714Z" fill="white"/>
</svg>
