<svg width="35" height="35" viewBox="0 0 35 35" fill="none" xmlns="http://www.w3.org/2000/svg">
<path d="M1.43003 11.3746C0.476677 11.3746 0 10.8857 0 9.90802V5.52632C0 3.69017 0.46476 2.31306 1.39428 1.39499C2.33572 0.464997 3.74191 0 5.61287 0H9.97446C10.9517 0 11.4402 0.47692 11.4402 1.43076C11.4402 2.39653 10.9517 2.87941 9.97446 2.87941H5.64862C4.75485 2.87941 4.06963 3.11787 3.59295 3.59479C3.11628 4.05979 2.87794 4.75728 2.87794 5.68728V9.90802C2.87794 10.8857 2.3953 11.3746 1.43003 11.3746ZM33.5521 11.3746C32.5987 11.3746 32.1221 10.8857 32.1221 9.90802V5.68728C32.1221 4.75728 31.8778 4.05979 31.3892 3.59479C30.9006 3.11787 30.2154 2.87941 29.3335 2.87941H25.0077C24.0424 2.87941 23.5598 2.39653 23.5598 1.43076C23.5598 0.47692 24.0424 0 25.0077 0H29.3871C31.2581 0 32.6583 0.464997 33.5878 1.39499C34.5293 2.31306 35 3.69017 35 5.52632V9.90802C35 10.8857 34.5174 11.3746 33.5521 11.3746ZM5.61287 35C3.74191 35 2.33572 34.535 1.39428 33.605C0.46476 32.6869 0 31.3039 0 29.4558V25.092C0 24.1143 0.476677 23.6254 1.43003 23.6254C2.3953 23.6254 2.87794 24.1143 2.87794 25.092V29.3127C2.87794 30.2427 3.11628 30.9402 3.59295 31.4052C4.06963 31.8821 4.75485 32.1206 5.64862 32.1206H9.97446C10.9517 32.1206 11.4402 32.6035 11.4402 33.5692C11.4402 34.5231 10.9517 35 9.97446 35H5.61287ZM25.0077 35C24.0424 35 23.5598 34.5231 23.5598 33.5692C23.5598 32.6035 24.0424 32.1206 25.0077 32.1206H29.3335C30.2154 32.1206 30.9006 31.8821 31.3892 31.4052C31.8778 30.9402 32.1221 30.2427 32.1221 29.3127V25.092C32.1221 24.1143 32.5987 23.6254 33.5521 23.6254C34.5174 23.6254 35 24.1143 35 25.092V29.4558C35 31.3039 34.5293 32.6869 33.5878 33.605C32.6583 34.535 31.2581 35 29.3871 35H25.0077ZM10.0281 24.9131C9.13432 24.9131 8.46101 24.6926 8.00817 24.2514C7.55533 23.7983 7.32891 23.1247 7.32891 22.2305V15.5774H27.6711V22.2305C27.6711 23.1247 27.4447 23.7983 26.9918 24.2514C26.539 24.6926 25.8657 24.9131 24.9719 24.9131H10.0281ZM10.8682 22.2305H12.9954C13.5555 22.2305 13.8355 21.9503 13.8355 21.3899V19.7982C13.8355 19.2378 13.5555 18.9576 12.9954 18.9576H10.8682C10.3081 18.9576 10.0281 19.2378 10.0281 19.7982V21.3899C10.0281 21.9503 10.3081 22.2305 10.8682 22.2305ZM7.32891 13.5922V12.8053C7.32891 11.9111 7.55533 11.2434 8.00817 10.8022C8.46101 10.3492 9.13432 10.1226 10.0281 10.1226H24.9719C25.8657 10.1226 26.539 10.3492 26.9918 10.8022C27.4447 11.2434 27.6711 11.9111 27.6711 12.8053V13.5922H7.32891Z" fill="white"/>
</svg>
