<svg width="22" height="22" viewBox="0 0 22 22" fill="none" xmlns="http://www.w3.org/2000/svg">
<path d="M3.67969 21.5742C2.45312 21.5742 1.53125 21.2695 0.914062 20.6602C0.304688 20.0586 0 19.1523 0 17.9414V3.63281C0 2.42188 0.304688 1.51562 0.914062 0.914062C1.53125 0.304688 2.45312 0 3.67969 0H17.8945C19.1211 0 20.0391 0.304688 20.6484 0.914062C21.2656 1.51562 21.5742 2.42188 21.5742 3.63281V17.9414C21.5742 19.1523 21.2656 20.0586 20.6484 20.6602C20.0391 21.2695 19.1211 21.5742 17.8945 21.5742H3.67969ZM7.19531 16.3125C7.39844 16.3125 7.5625 16.2734 7.6875 16.1953C7.8125 16.1094 7.95312 15.9609 8.10938 15.75L10.7227 12.0352H10.7695L13.3711 15.75C13.5273 15.9609 13.668 16.1094 13.793 16.1953C13.9258 16.2734 14.0859 16.3125 14.2734 16.3125C14.5547 16.3125 14.7852 16.2305 14.9648 16.0664C15.1445 15.9023 15.2344 15.6875 15.2344 15.4219C15.2344 15.1953 15.1562 14.9844 15 14.7891L11.9766 10.6523L15.0234 6.50391C15.1797 6.30078 15.2578 6.08594 15.2578 5.85938C15.2578 5.61719 15.168 5.41406 14.9883 5.25C14.8164 5.08594 14.6016 5.00391 14.3438 5.00391C14.1562 5.00391 13.9922 5.04688 13.8516 5.13281C13.7188 5.21094 13.5898 5.35156 13.4648 5.55469L10.9336 9.26953H10.875L8.30859 5.54297C8.16797 5.34766 8.02734 5.21094 7.88672 5.13281C7.75391 5.04688 7.58594 5.00391 7.38281 5.00391C7.125 5.00391 6.90234 5.09375 6.71484 5.27344C6.52734 5.44531 6.43359 5.65625 6.43359 5.90625C6.43359 6.14062 6.51953 6.375 6.69141 6.60938L9.58594 10.5938L6.51562 14.8359C6.375 15.0391 6.30469 15.25 6.30469 15.4688C6.30469 15.7031 6.39062 15.9023 6.5625 16.0664C6.73438 16.2305 6.94531 16.3125 7.19531 16.3125Z" fill="#19922C"/>
</svg>
