<svg width="22" height="23" viewBox="0 0 22 23" fill="none" xmlns="http://www.w3.org/2000/svg">
<path d="M14.9883 18.9787C14.434 18.9787 13.9925 18.7803 13.664 18.3835C13.3424 17.9866 13.1815 17.4509 13.1815 16.7763C13.1815 16.1083 13.3458 15.5758 13.6743 15.179C14.0028 14.7822 14.4408 14.5838 14.9883 14.5838C15.5359 14.5838 15.9739 14.7822 16.3024 15.179C16.6309 15.5758 16.7951 16.1083 16.7951 16.7763C16.7951 17.4509 16.6309 17.9866 16.3024 18.3835C15.9739 18.7803 15.5359 18.9787 14.9883 18.9787ZM14.9883 17.7684C15.1321 17.7684 15.245 17.6824 15.3271 17.5104C15.4161 17.3385 15.4606 17.0937 15.4606 16.7763C15.4606 16.472 15.4161 16.2339 15.3271 16.062C15.2381 15.8834 15.1252 15.7941 14.9883 15.7941C14.8446 15.7941 14.7283 15.8834 14.6393 16.062C14.5572 16.2339 14.5161 16.472 14.5161 16.7763C14.5161 17.0937 14.5572 17.3385 14.6393 17.5104C14.7283 17.6824 14.8446 17.7684 14.9883 17.7684ZM14.7112 22.9074C14.5264 22.8148 14.4134 22.6759 14.3724 22.4907C14.3382 22.3122 14.3861 22.1336 14.5161 21.955L19.5259 14.8516C19.6422 14.6929 19.786 14.5904 19.9571 14.5441C20.1282 14.4978 20.2924 14.5176 20.4498 14.6036C20.6209 14.6962 20.727 14.8384 20.7681 15.0302C20.8091 15.2154 20.7681 15.3973 20.6449 15.5758L15.6659 22.6991C15.5564 22.8446 15.4092 22.9372 15.2245 22.9769C15.0397 23.0231 14.8686 23 14.7112 22.9074ZM20.1932 22.9471C19.6457 22.9471 19.2077 22.7454 18.8791 22.3419C18.5506 21.9385 18.3864 21.4027 18.3864 20.7347C18.3864 20.0667 18.5506 19.5343 18.8791 19.1375C19.2077 18.7406 19.6457 18.5422 20.1932 18.5422C20.7407 18.5422 21.1787 18.7406 21.5072 19.1375C21.8357 19.5343 22 20.0667 22 20.7347C22 21.4027 21.8357 21.9385 21.5072 22.3419C21.1787 22.7454 20.7407 22.9471 20.1932 22.9471ZM20.1932 21.7268C20.3369 21.7268 20.4498 21.6408 20.532 21.4689C20.6209 21.2969 20.6654 21.0522 20.6654 20.7347C20.6654 20.4305 20.6209 20.1891 20.532 20.0105C20.443 19.8385 20.3301 19.7526 20.1932 19.7526C20.0495 19.7526 19.9331 19.8385 19.8441 20.0105C19.762 20.1825 19.721 20.4239 19.721 20.7347C19.721 21.0522 19.762 21.2969 19.8441 21.4689C19.9331 21.6408 20.0495 21.7268 20.1932 21.7268ZM9.38311 2.96636V0.833357C9.38311 0.601869 9.46524 0.406758 9.62949 0.248023C9.79375 0.0826743 9.99564 0 10.2352 0C10.4747 0 10.6766 0.0826743 10.8409 0.248023C11.0051 0.406758 11.0873 0.601869 11.0873 0.833357V2.96636H9.38311ZM0.852077 12.5896C0.592005 12.5896 0.383263 12.5004 0.225852 12.3218C0.0752839 12.1432 0 11.9183 0 11.6472C0 10.8601 0.130036 10.0334 0.390107 9.16693C0.657023 8.29389 1.05397 7.444 1.58096 6.61725C2.11479 5.79051 2.78893 5.04313 3.60336 4.37513C4.41779 3.70712 5.37595 3.17469 6.47784 2.77786C7.57972 2.38102 8.83217 2.1826 10.2352 2.1826C11.6382 2.1826 12.8907 2.38102 13.9925 2.77786C15.1013 3.17469 16.0594 3.70712 16.867 4.37513C17.6814 5.04313 18.3556 5.79051 18.8894 6.61725C19.4232 7.444 19.8202 8.29389 20.0803 9.16693C20.3403 10.0334 20.4704 10.8601 20.4704 11.6472C20.4704 11.9183 20.3917 12.1432 20.2343 12.3218C20.0837 12.5004 19.8784 12.5896 19.6183 12.5896C19.4677 12.5896 19.3206 12.5467 19.1769 12.4607C19.04 12.3681 18.9168 12.2391 18.8073 12.0738C18.4651 11.5711 18.1023 11.2106 17.7191 10.9924C17.3427 10.7675 16.9115 10.6551 16.4256 10.6551C15.9465 10.6551 15.5359 10.7675 15.1937 10.9924C14.8515 11.2106 14.5332 11.5678 14.2389 12.0638C14.0268 12.4144 13.7838 12.5896 13.51 12.5896C13.2226 12.5896 12.9796 12.4144 12.7811 12.0638C12.5074 11.6075 12.1378 11.2503 11.6724 10.9924C11.207 10.7278 10.728 10.5955 10.2352 10.5955C9.74242 10.5955 9.26334 10.7278 8.79795 10.9924C8.33256 11.2503 7.96298 11.6075 7.68922 12.0638C7.49759 12.4144 7.25463 12.5896 6.96034 12.5896C6.68658 12.5896 6.44704 12.4144 6.24172 12.0638C5.94058 11.5678 5.61891 11.2106 5.27671 10.9924C4.93452 10.7675 4.52388 10.6551 4.0448 10.6551C3.55887 10.6551 3.12428 10.7675 2.74102 10.9924C2.3646 11.2106 2.00871 11.5711 1.67336 12.0738C1.55701 12.2391 1.42697 12.3681 1.28325 12.4607C1.14637 12.5467 1.00264 12.5896 0.852077 12.5896ZM7.83294 22.9372C7.21014 22.9372 6.65236 22.7983 6.15959 22.5205C5.66682 22.2427 5.27671 21.8657 4.98927 21.3895C4.70866 20.9133 4.56836 20.3743 4.56836 19.7724C4.56836 19.488 4.64365 19.2565 4.79421 19.0779C4.95163 18.8994 5.15695 18.8101 5.41017 18.8101C5.67709 18.8101 5.89267 18.8994 6.05693 19.0779C6.22119 19.2565 6.30331 19.488 6.30331 19.7724C6.30331 20.2089 6.44361 20.5661 6.72422 20.8439C7.01167 21.1216 7.38124 21.2605 7.83294 21.2605C8.28465 21.2605 8.65422 21.1216 8.94167 20.8439C9.23596 20.5661 9.38311 20.2089 9.38311 19.7724V10.1193H11.0873V19.7724C11.0873 20.3743 10.9435 20.9133 10.6561 21.3895C10.3755 21.8657 9.9888 22.2427 9.49603 22.5205C9.00327 22.7983 8.4489 22.9372 7.83294 22.9372Z" fill="#19922C"/>
</svg>
