<svg width="22" height="17" viewBox="0 0 22 17" fill="none" xmlns="http://www.w3.org/2000/svg">
<path d="M2.9296 17C1.95307 17 1.21911 16.7599 0.727735 16.2797C0.242578 15.8057 0 15.0947 0 14.1467V2.86257C0 1.90838 0.242578 1.19428 0.727735 0.720261C1.21911 0.240087 1.95307 0 2.9296 0H19.0704C20.0532 0 20.7871 0.240087 21.2723 0.720261C21.7574 1.20043 22 1.91454 22 2.86257V14.1467C22 15.0947 21.7574 15.8057 21.2723 16.2797C20.7871 16.7599 20.0532 17 19.0704 17H2.9296ZM4.72095 15.6149H17.2977C17.1236 15.0301 16.8405 14.4914 16.4487 13.9989C16.063 13.5064 15.5903 13.0817 15.0305 12.7246C14.477 12.3614 13.8581 12.0813 13.1739 11.8843C12.4959 11.6812 11.7744 11.5796 11.0093 11.5796C10.2443 11.5796 9.51965 11.6812 8.83545 11.8843C8.15748 12.0813 7.5417 12.3614 6.98813 12.7246C6.43455 13.0817 5.96183 13.5064 5.56997 13.9989C5.18434 14.4914 4.90133 15.0301 4.72095 15.6149ZM11.0093 10.0375C11.6064 10.0436 12.1445 9.89589 12.6234 9.59424C13.1086 9.29259 13.4911 8.88014 13.771 8.35687C14.0571 7.82745 14.2002 7.23339 14.2002 6.57469C14.2002 5.95908 14.0571 5.3958 13.771 4.88485C13.4911 4.36773 13.1086 3.95528 12.6234 3.64747C12.1445 3.33967 11.6064 3.18577 11.0093 3.18577C10.4184 3.18577 9.88041 3.33967 9.39525 3.64747C8.91009 3.95528 8.52446 4.36773 8.23834 4.88485C7.95844 5.3958 7.81849 5.95908 7.81849 6.57469C7.82471 7.23339 7.96777 7.82437 8.24767 8.34764C8.53379 8.86475 8.91631 9.27413 9.39525 9.57577C9.88041 9.87742 10.4184 10.0313 11.0093 10.0375Z" fill="#19922C"/>
</svg>
