<svg width="22" height="23" viewBox="0 0 22 23" fill="none" xmlns="http://www.w3.org/2000/svg">
<path d="M4.28224 11.4788H11.2837C11.4907 11.4788 11.6655 11.4048 11.8083 11.2567C11.9582 11.1015 12.0331 10.9216 12.0331 10.7171C12.0331 10.5055 11.9582 10.3257 11.8083 10.1776C11.6655 10.0294 11.4907 9.95538 11.2837 9.95538H4.28224C4.05385 9.95538 3.86829 10.0294 3.72555 10.1776C3.58281 10.3257 3.51144 10.5055 3.51144 10.7171C3.51144 10.9216 3.58281 11.1015 3.72555 11.2567C3.86829 11.4048 4.05385 11.4788 4.28224 11.4788ZM4.28224 14.3353H9.28175C9.49586 14.3353 9.67429 14.2648 9.81703 14.1237C9.96691 13.9827 10.0418 13.8063 10.0418 13.5948C10.0418 13.3832 9.96691 13.2033 9.81703 13.0552C9.67429 12.9071 9.49586 12.833 9.28175 12.833H4.28224C4.05385 12.833 3.86829 12.9071 3.72555 13.0552C3.58281 13.2033 3.51144 13.3832 3.51144 13.5948C3.51144 13.8063 3.58281 13.9827 3.72555 14.1237C3.86829 14.2648 4.05385 14.3353 4.28224 14.3353ZM16.3046 14.621C16.7757 14.621 17.2075 14.5081 17.6 14.2824C17.9997 14.0497 18.3137 13.7393 18.5421 13.3514C18.7776 12.9565 18.8954 12.5227 18.8954 12.0501C18.8954 11.5776 18.7776 11.1473 18.5421 10.7594C18.3137 10.3645 17.9997 10.0541 17.6 9.82843C17.2075 9.59568 16.7757 9.4793 16.3046 9.4793C15.8193 9.4793 15.3804 9.59568 14.9878 9.82843C14.5953 10.0541 14.2813 10.3645 14.0457 10.7594C13.8102 11.1473 13.6925 11.5776 13.6925 12.0501C13.6925 12.5227 13.8102 12.9565 14.0457 13.3514C14.2813 13.7393 14.5953 14.0497 14.9878 14.2824C15.3804 14.5081 15.8193 14.621 16.3046 14.621ZM3.2545 23C2.16967 23 1.35604 22.732 0.813625 22.196C0.271208 21.667 0 20.8735 0 19.8155V9.17249C0 8.12159 0.271208 7.33165 0.813625 6.80267C1.35604 6.26664 2.16967 5.99862 3.2545 5.99862H18.7455C19.8232 5.99862 20.6333 6.26664 21.1757 6.80267C21.7252 7.33165 22 8.12159 22 9.17249V19.8155C22 20.8665 21.7252 21.6599 21.1757 22.196C20.6333 22.732 19.8232 23 18.7455 23H3.2545ZM2.04477 4.29531C2.12328 3.8157 2.291 3.44894 2.54793 3.19503C2.80487 2.93407 3.20097 2.80359 3.73625 2.80359H18.2745C18.8097 2.80359 19.2023 2.93407 19.4521 3.19503C19.709 3.44894 19.8803 3.8157 19.9659 4.29531H2.04477ZM4.25012 1.36477C4.27867 0.91337 4.42141 0.574824 4.67835 0.349126C4.94242 0.116375 5.32068 0 5.81314 0H16.1869C16.6865 0 17.0647 0.116375 17.3217 0.349126C17.5786 0.574824 17.7249 0.91337 17.7606 1.36477H4.25012Z" fill="#19922C"/>
</svg>
