<svg width="27" height="26" viewBox="0 0 27 26" fill="none" xmlns="http://www.w3.org/2000/svg">
<path d="M20.1532 15.0219C20.554 14.0399 20.7786 12.9672 20.7786 11.8408C20.7786 7.18101 17.0006 3.40298 12.3408 3.40298C7.68104 3.40298 3.90302 7.18101 3.90302 11.8408C3.90302 16.5006 7.68104 20.2786 12.3408 20.2786C13.4673 20.2786 14.541 20.0539 15.524 19.6532" stroke="#6B75FF" stroke-width="1.18657" stroke-linecap="round" stroke-linejoin="round"/>
<path d="M19.7239 15.005C22.0538 15.005 23.9428 16.894 23.9428 19.2239C23.9428 21.5538 22.0538 23.4428 19.7239 23.4428C17.394 23.4428 15.505 21.5538 15.505 19.2239C15.505 16.894 17.394 15.005 19.7239 15.005" stroke="#6B75FF" stroke-width="1.18657" stroke-linecap="round" stroke-linejoin="round"/>
<path d="M18.3317 19.362H21.1583" stroke="#6B75FF" stroke-width="1.18657" stroke-linecap="round" stroke-linejoin="round"/>
<path d="M13.4375 13.275C14.2232 13.275 14.9767 12.9629 15.5323 12.4073C16.0879 11.8517 16.4 11.0982 16.4 10.3125C16.4 9.5268 16.0879 8.77327 15.5323 8.2177C14.9767 7.66212 14.2232 7.35 13.4375 7.35H10.625C10.4858 7.35 10.3522 7.40531 10.2538 7.50377C10.1553 7.60223 10.1 7.73576 10.1 7.875V12.225H9.125C8.98576 12.225 8.85223 12.2803 8.75377 12.3788C8.65531 12.4772 8.6 12.6108 8.6 12.75C8.6 12.8892 8.65531 13.0228 8.75377 13.1212C8.85223 13.2197 8.98576 13.275 9.125 13.275H10.1V13.725H9.125C8.98576 13.725 8.85223 13.7803 8.75377 13.8788C8.65531 13.9772 8.6 14.1108 8.6 14.25C8.6 14.3892 8.65531 14.5228 8.75377 14.6212C8.85223 14.7197 8.98576 14.775 9.125 14.775H10.1V16.125C10.1 16.2642 10.1553 16.3978 10.2538 16.4962C10.3522 16.5947 10.4858 16.65 10.625 16.65C10.7642 16.65 10.8978 16.5947 10.9962 16.4962C11.0947 16.3978 11.15 16.2642 11.15 16.125V14.775H13.25C13.3892 14.775 13.5228 14.7197 13.6212 14.6212C13.7197 14.5228 13.775 14.3892 13.775 14.25C13.775 14.1108 13.7197 13.9772 13.6212 13.8788C13.5228 13.7803 13.3892 13.725 13.25 13.725H11.15V13.275H13.4375ZM11.15 8.4H13.4375C13.9447 8.4 14.4312 8.6015 14.7898 8.96016C15.1485 9.31882 15.35 9.80527 15.35 10.3125C15.35 10.8197 15.1485 11.3062 14.7898 11.6648C14.4312 12.0235 13.9447 12.225 13.4375 12.225H11.15V8.4Z" fill="#6B75FF" stroke="#6B75FF" stroke-width="0.3"/>
<path d="M19.7439 20.7754V17.9487" stroke="#6B75FF" stroke-width="1.18657" stroke-linecap="round" stroke-linejoin="round"/>
</svg>
