<svg width="28" height="28" viewBox="0 0 28 28" fill="none" xmlns="http://www.w3.org/2000/svg">
<path fill-rule="evenodd" clip-rule="evenodd" d="M19.9381 20.5599V13.7428C19.9383 13.1401 19.6989 12.562 19.2727 12.1358C18.8465 11.7096 18.2685 11.4703 17.6657 11.4704H6.30387C5.70115 11.4703 5.12306 11.7096 4.69687 12.1358C4.27069 12.562 4.03133 13.1401 4.03149 13.7428V20.5599C4.03133 21.1627 4.27069 21.7408 4.69687 22.1669C5.12306 22.5931 5.70115 22.8325 6.30387 22.8323H17.6657C18.9207 22.8323 19.9381 21.8149 19.9381 20.5599Z" stroke="#4CA6A8" stroke-width="1.51429" stroke-linecap="round" stroke-linejoin="round"/>
<path d="M4.03149 16.105H19.9381" stroke="#4CA6A8" stroke-width="1.51429" stroke-linecap="round" stroke-linejoin="round"/>
<path d="M7.6673 11.4705L9.04208 6.33491C9.19807 5.75288 9.57925 5.25685 10.1015 4.95629C10.6237 4.65573 11.2441 4.57535 11.8257 4.73288L22.8013 7.67561C23.3833 7.83159 23.8794 8.21277 24.1799 8.73502C24.4805 9.25727 24.5609 9.87766 24.4033 10.4593L22.6422 17.0378C22.3289 18.2218 21.1306 18.9417 19.9381 18.6625" stroke="#4CA6A8" stroke-width="1.51429" stroke-linecap="round" stroke-linejoin="round"/>
</svg>
