<svg width="79" height="61" viewBox="0 0 79 61" fill="none" xmlns="http://www.w3.org/2000/svg">
<path d="M15.6598 20.6841C15.9491 19.5222 16.283 18.2945 16.6615 17.0011C17.0621 15.7076 17.4739 14.5128 17.8969 13.4167C18.3198 12.2987 18.7094 11.4437 19.0655 10.8518C19.4884 10.1064 19.967 9.55831 20.5013 9.20755C21.0578 8.85678 21.7701 8.61563 22.6382 8.4841C23.8402 8.30871 25.8325 8.17718 28.615 8.08949C31.3974 7.97987 35.0258 7.92507 39.5 7.92507C43.9742 7.92507 47.6026 7.97987 50.385 8.08949C53.1675 8.17718 55.1598 8.30871 56.3618 8.4841C57.2299 8.61563 57.9311 8.85678 58.4653 9.20755C59.0218 9.55831 59.5116 10.1064 59.9345 10.8518C60.2906 11.4437 60.6802 12.2987 61.1031 13.4167C61.5261 14.5128 61.9379 15.7076 62.3385 17.0011C62.7392 18.2945 63.0731 19.5222 63.3402 20.6841C63.4738 21.276 63.4181 21.6925 63.1733 21.9337C62.9284 22.1748 62.4944 22.2735 61.8711 22.2297C60.0903 22.0981 58.1426 21.9885 56.0279 21.9008C53.9355 21.7912 51.5425 21.7145 48.8491 21.6706C46.1779 21.6049 43.0616 21.572 39.5 21.572C35.9384 21.572 32.8109 21.6049 30.1175 21.6706C27.4463 21.7145 25.0645 21.7912 22.9721 21.9008C20.8797 21.9885 18.9431 22.0981 17.1623 22.2297C16.5168 22.2735 16.0716 22.1748 15.8267 21.9337C15.5819 21.6925 15.5262 21.276 15.6598 20.6841ZM15.426 43.0782C13.8901 43.0782 12.6102 42.5739 11.5862 41.5655C10.5623 40.5351 10.0503 39.2746 10.0503 37.7838C10.0503 36.2712 10.5623 35.0106 11.5862 34.0022C12.6102 32.9937 13.8901 32.4895 15.426 32.4895C16.962 32.4895 18.2419 32.9937 19.2659 34.0022C20.2898 35.0106 20.8018 36.2712 20.8018 37.7838C20.8018 39.2746 20.2898 40.5351 19.2659 41.5655C18.2419 42.5739 16.962 43.0782 15.426 43.0782ZM30.6851 41.7628C29.5276 41.7628 28.5927 41.412 27.8804 40.7105C27.1681 40.009 26.8119 39.0882 26.8119 37.9482C26.8119 36.8302 27.1681 35.9204 27.8804 35.2189C28.5927 34.5173 29.5276 34.1666 30.6851 34.1666H48.3483C49.4835 34.1666 50.4073 34.5173 51.1196 35.2189C51.8319 35.9204 52.1881 36.8302 52.1881 37.9482C52.1881 39.0882 51.8319 40.009 51.1196 40.7105C50.4073 41.412 49.4835 41.7628 48.3483 41.7628H30.6851ZM63.574 43.0782C62.0603 43.0782 60.7915 42.5739 59.7675 41.5655C58.7436 40.5351 58.2316 39.2746 58.2316 37.7838C58.2316 36.2712 58.7436 35.0106 59.7675 34.0022C60.7915 32.9937 62.0603 32.4895 63.574 32.4895C65.1099 32.4895 66.3898 32.9937 67.4138 34.0022C68.4377 35.0106 68.9497 36.2712 68.9497 37.7838C68.9497 39.2746 68.4377 40.5351 67.4138 41.5655C66.3898 42.5739 65.1099 43.0782 63.574 43.0782ZM39.5 51.9569C36.6953 51.9569 33.7347 51.924 30.6183 51.8582C27.502 51.7925 24.4413 51.7048 21.4362 51.5951C18.4311 51.4636 15.6709 51.3211 13.1555 51.1677C10.6624 51.0142 8.62567 50.8498 7.04522 50.6744C4.79699 50.4113 3.06072 49.6769 1.83643 48.4712C0.612144 47.2654 0 45.6102 0 43.5057V37.7181C0 35.8546 0.133559 34.2323 0.400676 32.8512C0.690054 31.4482 1.13525 30.1438 1.73626 28.938C2.35954 27.7103 3.19428 26.4388 4.24049 25.1235L7.04522 21.5391C7.4459 19.566 7.93562 17.6149 8.51437 15.6857C9.09313 13.7565 9.66075 12.0246 10.2172 10.49C10.7737 8.95544 11.2523 7.78257 11.653 6.97143C12.5434 5.108 13.8233 3.62821 15.4928 2.53208C17.1623 1.41402 19.11 0.72345 21.336 0.460377C22.0706 0.372686 23.3171 0.295957 25.0757 0.230189C26.8564 0.16442 28.9823 0.109614 31.4531 0.0657682C33.9462 0.0219227 36.6285 0 39.5 0C42.3715 0 45.0427 0.0219227 47.5135 0.0657682C50.0066 0.0876909 52.1324 0.131536 53.891 0.197305C55.6717 0.263073 56.9405 0.350764 57.6974 0.460377C59.9011 0.745373 61.8377 1.43594 63.5072 2.53208C65.1989 3.62821 66.49 5.108 67.3804 6.97143C67.7588 7.78257 68.2263 8.95544 68.7828 10.49C69.3615 12.0246 69.9291 13.7565 70.4856 15.6857C71.0644 17.6149 71.5541 19.566 71.9548 21.5391L74.7929 25.1235C75.8169 26.4388 76.6405 27.7103 77.2637 28.938C77.887 30.1438 78.3322 31.4482 78.5993 32.8512C78.8664 34.2323 79 35.8546 79 37.7181V43.5057C79 45.6102 78.3879 47.2654 77.1636 48.4712C75.9615 49.6769 74.2253 50.4113 71.9548 50.6744C70.3743 50.8498 68.3264 51.0142 65.8111 51.1677C63.318 51.3211 60.5689 51.4636 57.5638 51.5951C54.5588 51.7048 51.498 51.7925 48.3817 51.8582C45.2653 51.924 42.3047 51.9569 39.5 51.9569ZM39.5 47.6491C42.3493 47.6491 45.3098 47.6162 48.3817 47.5504C51.4758 47.4846 54.4808 47.3969 57.3969 47.2873C60.3129 47.1777 62.9396 47.0571 65.2768 46.9256C67.6141 46.7941 69.4506 46.6406 70.7861 46.4652C72.2108 46.3118 73.2013 45.8733 73.7578 45.1499C74.3366 44.4264 74.626 43.4399 74.626 42.1903V37.7181C74.626 36.2054 74.5258 34.9229 74.3254 33.8706C74.1474 32.7964 73.8135 31.788 73.3238 30.8453C72.8563 29.9026 72.1885 28.8722 71.3204 27.7542L67.8812 23.3477C67.6586 22.1639 67.3693 20.8924 67.0131 19.5332C66.6569 18.1739 66.2674 16.8257 65.8445 15.4884C65.4215 14.1511 64.9986 12.9125 64.5757 11.7725C64.1527 10.6325 63.7632 9.67889 63.407 8.91159C62.8505 7.79353 62.0492 6.8947 61.003 6.21509C59.979 5.51357 58.6768 5.06415 57.0964 4.86685C56.4508 4.77916 55.2933 4.69146 53.6238 4.60377C51.9766 4.51608 49.9398 4.45031 47.5135 4.40647C45.1095 4.3407 42.4383 4.30782 39.5 4.30782C36.584 4.30782 33.9239 4.3407 31.5199 4.40647C29.1158 4.45031 27.079 4.51608 25.4096 4.60377C23.7401 4.69146 22.5492 4.77916 21.8369 4.86685C20.3232 5.04223 19.0433 5.48068 17.997 6.18221C16.9508 6.86181 16.1606 7.77161 15.6264 8.91159C15.2702 9.67889 14.8695 10.6325 14.4243 11.7725C14.0014 12.9125 13.5785 14.1511 13.1555 15.4884C12.7326 16.8257 12.3431 18.1739 11.9869 19.5332C11.6307 20.8924 11.3414 22.1639 11.1188 23.3477L7.71302 27.7542C6.84489 28.8722 6.16596 29.9026 5.67625 30.8453C5.20879 31.788 4.87489 32.7964 4.67456 33.8706C4.47422 34.9229 4.37405 36.2054 4.37405 37.7181V42.1903C4.37405 43.4399 4.66343 44.4264 5.24218 45.1499C5.82094 45.8514 6.8115 46.2898 8.21386 46.4652C9.57171 46.6406 11.4193 46.805 13.7566 46.9585C16.0938 47.09 18.7094 47.2106 21.6031 47.3202C24.5192 47.4079 27.5242 47.4846 30.6183 47.5504C33.7125 47.6162 36.673 47.6491 39.5 47.6491ZM6.1437 61C4.87489 61 3.81755 60.5835 2.97168 59.7504C2.12581 58.9173 1.70287 57.887 1.70287 56.6593V47.0243L14.4911 48.8329V56.6593C14.4911 57.887 14.0682 58.9173 13.2223 59.7504C12.3764 60.5835 11.3191 61 10.0503 61H6.1437ZM68.9497 61C67.7032 61 66.6569 60.5835 65.8111 59.7504C64.9652 58.9173 64.5423 57.887 64.5423 56.6593V48.8329L77.2971 47.0243V56.6593C77.2971 57.887 76.8742 58.9173 76.0283 59.7504C75.1824 60.5835 74.1362 61 72.8897 61H68.9497Z" fill="#19922C"/>
</svg>
