<svg width="23" height="25" viewBox="0 0 23 25" fill="none" xmlns="http://www.w3.org/2000/svg">
<path d="M1.76953 19.9688C1.21484 19.9688 0.78125 19.8398 0.46875 19.582C0.15625 19.3242 0 18.9805 0 18.5508C0 18.1602 0.113281 17.7812 0.339844 17.4141C0.566406 17.0469 0.847656 16.6875 1.18359 16.3359C1.52734 15.9844 1.86719 15.6328 2.20312 15.2812C2.46094 15.0156 2.66016 14.668 2.80078 14.2383C2.94922 13.8086 3.05859 13.3516 3.12891 12.8672C3.19922 12.3828 3.25 11.9141 3.28125 11.4609C3.30469 9.96094 3.46484 8.625 3.76172 7.45312C4.05859 6.28125 4.52344 5.29688 5.15625 4.5C5.79688 3.70312 6.63672 3.11719 7.67578 2.74219C7.89453 1.97656 8.29688 1.32812 8.88281 0.796875C9.46875 0.265625 10.1914 0 11.0508 0C11.918 0 12.6445 0.265625 13.2305 0.796875C13.8164 1.32812 14.2188 1.97656 14.4375 2.74219C15.4766 3.11719 16.3125 3.70312 16.9453 4.5C17.5781 5.29688 18.043 6.28125 18.3398 7.45312C18.6445 8.625 18.8086 9.96094 18.832 11.4609C18.8633 11.9141 18.9141 12.3828 18.9844 12.8672C19.0547 13.3516 19.1602 13.8086 19.3008 14.2383C19.4492 14.668 19.6523 15.0156 19.9102 15.2812C20.2461 15.6328 20.582 15.9844 20.918 16.3359C21.2617 16.6875 21.5469 17.0469 21.7734 17.4141C22 17.7812 22.1133 18.1602 22.1133 18.5508C22.1133 18.9805 21.957 19.3242 21.6445 19.582C21.332 19.8398 20.8984 19.9688 20.3438 19.9688H1.76953ZM11.0508 24.668C10.3945 24.668 9.80469 24.5234 9.28125 24.2344C8.75781 23.9453 8.33594 23.5664 8.01562 23.0977C7.69531 22.6289 7.51172 22.1211 7.46484 21.5742H14.6484C14.5938 22.1211 14.4062 22.6289 14.0859 23.0977C13.7734 23.5664 13.3555 23.9453 12.832 24.2344C12.3086 24.5234 11.7148 24.668 11.0508 24.668Z" fill="#19922C"/>
</svg>
