<svg width="21" height="12" viewBox="0 0 21 12" fill="none" xmlns="http://www.w3.org/2000/svg">
<path d="M10.1836 11.4609C9.88672 11.4609 9.62109 11.3477 9.38672 11.1211L0.316406 1.83984C0.214844 1.73828 0.136719 1.625 0.0820312 1.5C0.0273438 1.36719 0 1.22656 0 1.07812C0 0.875 0.046875 0.691406 0.140625 0.527344C0.234375 0.363281 0.359375 0.234375 0.515625 0.140625C0.679688 0.046875 0.863281 0 1.06641 0C1.36328 0 1.61719 0.101562 1.82812 0.304688L10.8047 9.48047H9.55078L18.5273 0.304688C18.7461 0.101562 19 0 19.2891 0C19.4922 0 19.6719 0.046875 19.8281 0.140625C19.9922 0.234375 20.1211 0.363281 20.2148 0.527344C20.3086 0.691406 20.3555 0.875 20.3555 1.07812C20.3555 1.36719 20.25 1.61719 20.0391 1.82812L10.9688 11.1211C10.8672 11.2305 10.7461 11.3164 10.6055 11.3789C10.4727 11.4336 10.332 11.4609 10.1836 11.4609Z" fill="#383838"/>
</svg>
