<svg width="26" height="22" viewBox="0 0 26 22" fill="none" xmlns="http://www.w3.org/2000/svg">
<path d="M0 10.7461C0 10.5508 0.0429688 10.3438 0.128906 10.125C0.214844 9.90625 0.371094 9.69141 0.597656 9.48047L9.84375 0.832031C10.1562 0.535156 10.4258 0.324219 10.6523 0.199219C10.8789 0.0664062 11.1367 0 11.4258 0C11.8398 0 12.1758 0.140625 12.4336 0.421875C12.6914 0.703125 12.8203 1.03906 12.8203 1.42969V6.12891H22.5703C23.4219 6.12891 24.082 6.35938 24.5508 6.82031C25.0273 7.28125 25.2656 7.92969 25.2656 8.76562V12.7383C25.2656 13.5742 25.0273 14.2227 24.5508 14.6836C24.082 15.1445 23.4219 15.375 22.5703 15.375H12.8203V20.1211C12.8203 20.5195 12.6914 20.8477 12.4336 21.1055C12.1758 21.3633 11.8477 21.4922 11.4492 21.4922C11.1602 21.4922 10.8906 21.4297 10.6406 21.3047C10.3906 21.1875 10.125 20.9961 9.84375 20.7305L0.597656 12C0.371094 11.7891 0.214844 11.5742 0.128906 11.3555C0.0429688 11.1367 0 10.9336 0 10.7461Z" fill="white"/>
</svg>
