<svg width="23" height="25" viewBox="0 0 23 25" fill="none" xmlns="http://www.w3.org/2000/svg">
<path d="M0 18.5508C0 18.1602 0.113281 17.7812 0.339844 17.4141C0.566406 17.0469 0.847656 16.6875 1.18359 16.3359C1.52734 15.9844 1.86719 15.6328 2.20312 15.2812C2.46094 15.0156 2.66016 14.668 2.80078 14.2383C2.94922 13.8086 3.05859 13.3516 3.12891 12.8672C3.19922 12.3828 3.25 11.9141 3.28125 11.4609C3.30469 9.92188 3.46484 8.57031 3.76172 7.40625C4.05859 6.23438 4.52344 5.25781 5.15625 4.47656C5.79688 3.69531 6.63672 3.11719 7.67578 2.74219C7.87109 1.97656 8.26562 1.32812 8.85938 0.796875C9.46094 0.265625 10.1914 0 11.0508 0C11.918 0 12.6484 0.265625 13.2422 0.796875C13.8438 1.32812 14.2422 1.97656 14.4375 2.74219C15.4766 3.11719 16.3125 3.69531 16.9453 4.47656C17.5781 5.25781 18.043 6.23438 18.3398 7.40625C18.6445 8.57031 18.8086 9.92188 18.832 11.4609C18.8633 11.9141 18.9141 12.3828 18.9844 12.8672C19.0547 13.3516 19.1602 13.8086 19.3008 14.2383C19.4492 14.668 19.6523 15.0156 19.9102 15.2812C20.2461 15.6328 20.582 15.9844 20.918 16.3359C21.2617 16.6875 21.5469 17.0469 21.7734 17.4141C22 17.7812 22.1133 18.1602 22.1133 18.5508C22.1133 18.9805 21.957 19.3242 21.6445 19.582C21.332 19.8398 20.8984 19.9688 20.3438 19.9688H15.3984C15.3672 20.7266 15.1602 21.4258 14.7773 22.0664C14.4023 22.7148 13.8945 23.2344 13.2539 23.625C12.6133 24.0156 11.8789 24.2109 11.0508 24.2109C10.2305 24.2109 9.5 24.0117 8.85938 23.6133C8.21875 23.2227 7.70703 22.707 7.32422 22.0664C6.94922 21.4258 6.74609 20.7266 6.71484 19.9688H1.76953C1.21484 19.9688 0.78125 19.8398 0.46875 19.582C0.15625 19.3242 0 18.9805 0 18.5508ZM2.27344 18.1992H19.8281V18.0586C19.7578 17.9492 19.6406 17.8047 19.4766 17.625C19.3203 17.4375 19.1367 17.2344 18.9258 17.0156C18.7227 16.7969 18.5156 16.5742 18.3047 16.3477C18.0938 16.1133 17.9102 15.8438 17.7539 15.5391C17.5977 15.2266 17.4648 14.875 17.3555 14.4844C17.2539 14.0938 17.168 13.6602 17.0977 13.1836C17.0352 12.707 16.9922 12.1836 16.9688 11.6133C16.9375 9.91016 16.7578 8.55859 16.4297 7.55859C16.1094 6.55859 15.6797 5.81641 15.1406 5.33203C14.6094 4.83984 14.0078 4.5 13.3359 4.3125C13.1953 4.28125 13.082 4.22656 12.9961 4.14844C12.918 4.0625 12.8789 3.94531 12.8789 3.79688C12.8555 3.1875 12.6797 2.69141 12.3516 2.30859C12.0312 1.91797 11.5977 1.72266 11.0508 1.72266C10.5117 1.72266 10.0781 1.91797 9.75 2.30859C9.42969 2.69141 9.25781 3.1875 9.23438 3.79688C9.22656 3.94531 9.18359 4.0625 9.10547 4.14844C9.02734 4.22656 8.91406 4.28125 8.76562 4.3125C8.09375 4.5 7.48828 4.83984 6.94922 5.33203C6.41797 5.81641 5.99219 6.55859 5.67188 7.55859C5.35156 8.55859 5.17578 9.91016 5.14453 11.6133C5.11328 12.1836 5.06641 12.707 5.00391 13.1836C4.94141 13.6602 4.85547 14.0938 4.74609 14.4844C4.63672 14.875 4.50391 15.2266 4.34766 15.5391C4.19141 15.8438 4.00781 16.1133 3.79688 16.3477C3.59375 16.5742 3.38672 16.7969 3.17578 17.0156C2.97266 17.2344 2.78906 17.4375 2.625 17.625C2.46094 17.8047 2.34375 17.9492 2.27344 18.0586V18.1992ZM8.54297 19.9688C8.58203 20.7656 8.83203 21.3945 9.29297 21.8555C9.76172 22.3242 10.3477 22.5586 11.0508 22.5586C11.7617 22.5586 12.3477 22.3242 12.8086 21.8555C13.2695 21.3945 13.5234 20.7656 13.5703 19.9688H8.54297Z" fill="white"/>
</svg>
