<svg width="24" height="24" viewBox="0 0 24 24" fill="none" xmlns="http://www.w3.org/2000/svg">
<path d="M11.9531 23.9062C10.3203 23.9062 8.78125 23.5938 7.33594 22.9688C5.89844 22.3438 4.62891 21.4805 3.52734 20.3789C2.42578 19.2773 1.5625 18.0078 0.9375 16.5703C0.3125 15.125 0 13.5859 0 11.9531C0 10.3203 0.3125 8.78516 0.9375 7.34766C1.5625 5.90234 2.42188 4.62891 3.51562 3.52734C4.61719 2.42578 5.88672 1.5625 7.32422 0.9375C8.76953 0.3125 10.3086 0 11.9414 0C13.5742 0 15.1133 0.3125 16.5586 0.9375C18.0039 1.5625 19.2773 2.42578 20.3789 3.52734C21.4805 4.62891 22.3438 5.90234 22.9688 7.34766C23.5938 8.78516 23.9062 10.3203 23.9062 11.9531C23.9062 13.5859 23.5938 15.125 22.9688 16.5703C22.3438 18.0078 21.4805 19.2773 20.3789 20.3789C19.2773 21.4805 18.0039 22.3438 16.5586 22.9688C15.1211 23.5938 13.5859 23.9062 11.9531 23.9062ZM6.31641 13.7109C6.80078 13.7109 7.21484 13.5391 7.55859 13.1953C7.90234 12.8438 8.07422 12.4258 8.07422 11.9414C8.07422 11.457 7.89844 11.043 7.54688 10.6992C7.20312 10.3477 6.79297 10.1719 6.31641 10.1719C5.83203 10.1719 5.41406 10.3477 5.0625 10.6992C4.71875 11.043 4.54688 11.457 4.54688 11.9414C4.54688 12.4258 4.71875 12.8438 5.0625 13.1953C5.41406 13.5391 5.83203 13.7109 6.31641 13.7109ZM11.9531 13.7109C12.4453 13.7109 12.8633 13.5391 13.207 13.1953C13.5508 12.8438 13.7227 12.4258 13.7227 11.9414C13.7227 11.457 13.5508 11.043 13.207 10.6992C12.8633 10.3477 12.4453 10.1719 11.9531 10.1719C11.4688 10.1719 11.0547 10.3477 10.7109 10.6992C10.3672 11.043 10.1953 11.457 10.1953 11.9414C10.1953 12.4258 10.3672 12.8438 10.7109 13.1953C11.0547 13.5391 11.4688 13.7109 11.9531 13.7109ZM17.6016 13.7109C18.0781 13.7109 18.4883 13.5391 18.832 13.1953C19.1836 12.8438 19.3594 12.4258 19.3594 11.9414C19.3594 11.457 19.1836 11.043 18.832 10.6992C18.4883 10.3477 18.0781 10.1719 17.6016 10.1719C17.1094 10.1719 16.6914 10.3477 16.3477 10.6992C16.0039 11.043 15.832 11.457 15.832 11.9414C15.832 12.4258 16.0039 12.8438 16.3477 13.1953C16.6914 13.5391 17.1094 13.7109 17.6016 13.7109Z" fill="white"/>
</svg>
