<svg width="26" height="37" viewBox="0 0 26 37" fill="none" xmlns="http://www.w3.org/2000/svg">
<path d="M3.71429 0H22.2857C23.2708 0 24.2155 0.38982 24.9121 1.0837C25.6087 1.77759 26 2.7187 26 3.7V33.3C26 34.2813 25.6087 35.2224 24.9121 35.9163C24.2155 36.6102 23.2708 37 22.2857 37H3.71429C2.7292 37 1.78445 36.6102 1.08789 35.9163C0.391325 35.2224 0 34.2813 0 33.3V3.7C0 2.7187 0.391325 1.77759 1.08789 1.0837C1.78445 0.38982 2.7292 0 3.71429 0ZM3.71429 3.7V11.1H22.2857V3.7H3.71429ZM3.71429 14.8V18.5H7.42857V14.8H3.71429ZM11.1429 14.8V18.5H14.8571V14.8H11.1429ZM18.5714 14.8V18.5H22.2857V14.8H18.5714ZM3.71429 22.2V25.9H7.42857V22.2H3.71429ZM11.1429 22.2V25.9H14.8571V22.2H11.1429ZM18.5714 22.2V25.9H22.2857V22.2H18.5714ZM3.71429 29.6V33.3H7.42857V29.6H3.71429ZM11.1429 29.6V33.3H14.8571V29.6H11.1429ZM18.5714 29.6V33.3H22.2857V29.6H18.5714Z" fill="white"/>
</svg>
