<svg width="11" height="10" viewBox="0 0 11 10" fill="none" xmlns="http://www.w3.org/2000/svg">
<path opacity="0.5" d="M0.182188 9.83596C0.0989742 9.76446 0.0434982 9.68034 0.0157602 9.5836C-0.00735477 9.48686 -0.00504327 9.39011 0.0226947 9.29338C0.0504327 9.19663 0.103597 9.11251 0.182188 9.04101L4.62026 4.99685L0.182188 0.95899C0.103597 0.887487 0.0504327 0.803365 0.0226947 0.706625C-0.000420272 0.609884 -0.000420272 0.513144 0.0226947 0.416404C0.0504327 0.319663 0.103597 0.235542 0.182188 0.164038C0.260779 0.0883281 0.353239 0.0399579 0.459568 0.0189274C0.565897 -0.00630915 0.672226 -0.00630915 0.778555 0.0189274C0.889507 0.0399579 0.984278 0.0883281 1.06287 0.164038L5.50095 4.20189L9.93902 0.164038C10.0176 0.0883281 10.1101 0.0399579 10.2164 0.0189274C10.3227 -0.00630915 10.4291 -0.00630915 10.5354 0.0189274C10.6417 0.0399579 10.7365 0.0883281 10.8197 0.164038C10.8983 0.235542 10.9515 0.319663 10.9792 0.416404C11.0069 0.513144 11.0069 0.609884 10.9792 0.706625C10.9515 0.803365 10.8983 0.887487 10.8197 0.95899L6.38163 4.99685L10.8197 9.04101C10.8983 9.11251 10.9491 9.19663 10.9723 9.29338C11 9.39011 11 9.48686 10.9723 9.5836C10.9491 9.68034 10.8983 9.76446 10.8197 9.83596C10.7411 9.91167 10.6463 9.96004 10.5354 9.98107C10.4291 10.0063 10.3227 10.0063 10.2164 9.98107C10.1101 9.95584 10.0176 9.90746 9.93902 9.83596L5.50095 5.79811L1.06287 9.83596C0.984278 9.90746 0.891818 9.95584 0.785489 9.98107C0.67916 10.0063 0.572831 10.0063 0.466502 9.98107C0.360173 9.95584 0.265402 9.90746 0.182188 9.83596Z" fill="black"/>
</svg>
