<svg width="29" height="26" viewBox="0 0 29 26" fill="none" xmlns="http://www.w3.org/2000/svg">
<path opacity="0.5" d="M0.480314 25.5735C0.260932 25.3876 0.114677 25.1689 0.0415497 24.9174C-0.0193898 24.6658 -0.0132959 24.4143 0.0598315 24.1628C0.132959 23.9113 0.27312 23.6925 0.480314 23.5066L12.1807 12.9918L0.480314 2.49338C0.27312 2.30747 0.132959 2.08875 0.0598315 1.83722C-0.00110799 1.5857 -0.00110799 1.33417 0.0598315 1.08265C0.132959 0.831125 0.27312 0.612408 0.480314 0.426498C0.687508 0.229653 0.931266 0.103891 1.21159 0.0492114C1.49191 -0.0164038 1.77223 -0.0164038 2.05255 0.0492114C2.34506 0.103891 2.59491 0.229653 2.80211 0.426498L14.5025 10.9249L26.2029 0.426498C26.4101 0.229653 26.6538 0.103891 26.9342 0.0492114C27.2145 -0.0164038 27.4948 -0.0164038 27.7751 0.0492114C28.0554 0.103891 28.3053 0.229653 28.5247 0.426498C28.7319 0.612408 28.872 0.831125 28.9452 1.08265C29.0183 1.33417 29.0183 1.5857 28.9452 1.83722C28.872 2.08875 28.7319 2.30747 28.5247 2.49338L16.8243 12.9918L28.5247 23.5066C28.7319 23.6925 28.8659 23.9113 28.9269 24.1628C29 24.4143 29 24.6658 28.9269 24.9174C28.8659 25.1689 28.7319 25.3876 28.5247 25.5735C28.3175 25.7703 28.0676 25.8961 27.7751 25.9508C27.4948 26.0164 27.2145 26.0164 26.9342 25.9508C26.6538 25.8852 26.4101 25.7594 26.2029 25.5735L14.5025 15.0751L2.80211 25.5735C2.59491 25.7594 2.35116 25.8852 2.07083 25.9508C1.79051 26.0164 1.51019 26.0164 1.22987 25.9508C0.949548 25.8852 0.699696 25.7594 0.480314 25.5735Z" fill="white"/>
</svg>
