<svg width="34" height="33" viewBox="0 0 34 33" fill="none" xmlns="http://www.w3.org/2000/svg">
<path d="M30.2222 0H3.77778C1.7 0 0 1.65 0 3.66667V29.3333C0 31.35 1.7 33 3.77778 33H30.2222C32.3 33 34 31.35 34 29.3333V3.66667C34 1.65 32.3 0 30.2222 0ZM18.8889 7.51667L20.9667 5.5L23.6111 8.06667L26.2556 5.5L28.3333 7.51667L25.6889 10.0833L28.3333 12.65L26.2556 14.6667L23.6111 12.1L20.9667 14.6667L18.8889 12.65L21.5333 10.0833L18.8889 7.51667ZM6.04444 8.61667H15.4889V11.3667H6.04444V8.61667ZM16.0556 23.8333H12.2778V27.5H9.44444V23.8333H5.66667V21.0833H9.44444V17.4167H12.2778V21.0833H16.0556V23.8333ZM28.3333 26.0333H18.8889V23.2833H28.3333V26.0333ZM28.3333 21.6333H18.8889V18.8833H28.3333V21.6333Z" fill="white"/>
</svg>
