<svg width="24" height="22" viewBox="0 0 24 22" fill="none" xmlns="http://www.w3.org/2000/svg">
<path d="M11.6367 21.5156C11.5195 21.5156 11.3789 21.4805 11.2148 21.4102C11.0586 21.3477 10.918 21.2773 10.793 21.1992C8.58984 19.793 6.67969 18.3203 5.0625 16.7812C3.44531 15.2344 2.19531 13.6484 1.3125 12.0234C0.4375 10.3906 0 8.74219 0 7.07812C0 6.03906 0.164062 5.08984 0.492188 4.23047C0.828125 3.36328 1.29297 2.61328 1.88672 1.98047C2.48047 1.34766 3.17188 0.859375 3.96094 0.515625C4.75 0.171875 5.60547 0 6.52734 0C7.67578 0 8.68359 0.292969 9.55078 0.878906C10.418 1.46484 11.1133 2.23828 11.6367 3.19922C12.168 2.23047 12.8672 1.45703 13.7344 0.878906C14.6016 0.292969 15.6055 0 16.7461 0C17.668 0 18.5234 0.171875 19.3125 0.515625C20.1094 0.859375 20.8008 1.34766 21.3867 1.98047C21.9805 2.61328 22.4414 3.36328 22.7695 4.23047C23.1055 5.08984 23.2734 6.03906 23.2734 7.07812C23.2734 8.74219 22.832 10.3906 21.9492 12.0234C21.0742 13.6484 19.8281 15.2344 18.2109 16.7812C16.6016 18.3203 14.6953 19.793 12.4922 21.1992C12.3672 21.2773 12.2227 21.3477 12.0586 21.4102C11.9023 21.4805 11.7617 21.5156 11.6367 21.5156Z" fill="#19922C"/>
</svg>
