<svg width="17" height="17" viewBox="0 0 17 17" fill="none" xmlns="http://www.w3.org/2000/svg">
<path d="M0 6.87582C0 5.92803 0.179802 5.04055 0.539406 4.21338C0.899011 3.38047 1.39782 2.64808 2.03582 2.01622C2.67383 1.38436 3.41044 0.890353 4.24565 0.534212C5.08666 0.178071 5.98567 0 6.94268 0C7.89969 0 8.7958 0.178071 9.63101 0.534212C10.472 0.890353 11.2115 1.38436 11.8495 2.01622C12.4875 2.64808 12.9864 3.38047 13.346 4.21338C13.7056 5.04055 13.8854 5.92803 13.8854 6.87582C13.8854 7.66278 13.7578 8.40953 13.5026 9.11607C13.2532 9.82261 12.9052 10.4631 12.4585 11.0375L16.7129 15.2767C16.8057 15.3686 16.8753 15.4749 16.9217 15.5955C16.9739 15.7162 17 15.8454 17 15.9833C17 16.1728 16.9565 16.3452 16.8695 16.5003C16.7883 16.6553 16.6723 16.776 16.5215 16.8621C16.3707 16.954 16.1967 17 15.9995 17C15.8603 17 15.7269 16.9742 15.5993 16.9225C15.4775 16.8765 15.3644 16.8047 15.26 16.707L10.9795 12.4592C10.4111 12.8613 9.78472 13.1772 9.10031 13.407C8.4159 13.6368 7.69669 13.7516 6.94268 13.7516C5.98567 13.7516 5.08666 13.5736 4.24565 13.2174C3.41044 12.8613 2.67383 12.3673 2.03582 11.7354C1.39782 11.1036 0.899011 10.3741 0.539406 9.54688C0.179802 8.71397 0 7.82362 0 6.87582ZM1.48772 6.87582C1.48772 7.62257 1.62692 8.32337 1.90532 8.97821C2.18953 9.6273 2.58103 10.1989 3.07984 10.6929C3.58444 11.1869 4.16445 11.5746 4.81986 11.8561C5.48106 12.1375 6.18867 12.2783 6.94268 12.2783C7.69669 12.2783 8.4014 12.1375 9.05681 11.8561C9.71801 11.5746 10.298 11.1869 10.7968 10.6929C11.2956 10.1989 11.6871 9.6273 11.9713 8.97821C12.2555 8.32337 12.3976 7.62257 12.3976 6.87582C12.3976 6.12908 12.2555 5.43115 11.9713 4.78206C11.6871 4.12722 11.2956 3.5528 10.7968 3.05879C10.298 2.55905 9.71801 2.17131 9.05681 1.89559C8.4014 1.61412 7.69669 1.47339 6.94268 1.47339C6.18867 1.47339 5.48106 1.61412 4.81986 1.89559C4.16445 2.17131 3.58444 2.55905 3.07984 3.05879C2.58103 3.5528 2.18953 4.12722 1.90532 4.78206C1.62692 5.43115 1.48772 6.12908 1.48772 6.87582Z" fill="white"/>
</svg>
