<svg width="102" height="97" viewBox="0 0 102 97" fill="none" xmlns="http://www.w3.org/2000/svg">
<path fill-rule="evenodd" clip-rule="evenodd" d="M40.3141 16.0379C26.7715 20.5176 17 33.28 17 48.3246C17 63.2522 26.62 75.9329 39.9987 80.5054L34.3406 96.5417C14.3546 89.6376 0 70.6575 0 48.3246C0 25.8747 14.5056 6.81279 34.6555 0L40.3141 16.0379ZM61.686 16.0379C75.2285 20.5177 85 33.28 85 48.3246C85 63.2522 75.38 75.9329 62.0014 80.5054L67.6594 96.5417C87.6454 89.6375 102 70.6575 102 48.3246C102 25.8747 87.4944 6.8128 67.3445 4.76837e-06L61.686 16.0379Z" fill="white"/>
</svg>
