<svg width="37" height="36" viewBox="0 0 37 36" fill="none" xmlns="http://www.w3.org/2000/svg">
<path d="M36 18C36 27.9411 27.9411 36 18 36C8.05887 36 0 27.9411 0 18C0 8.05887 8.05887 0 18 0C27.9411 0 36 8.05887 36 18Z" fill="#D9D9D9"/>
<path d="M18.5 36C15.9729 36 13.5908 35.5294 11.3539 34.5882C9.12909 33.6471 7.16422 32.3471 5.45931 30.6882C3.75441 29.0294 2.4183 27.1176 1.45098 24.9529C0.48366 22.7765 0 20.4588 0 18C0 15.5412 0.48366 13.2294 1.45098 11.0647C2.4183 8.88824 3.74837 6.97059 5.44118 5.31176C7.14608 3.65294 9.11095 2.35294 11.3358 1.41176C13.5727 0.470588 15.9547 0 18.4819 0C21.009 0 23.391 0.470588 25.6279 1.41176C27.8649 2.35294 29.8358 3.65294 31.5407 5.31176C33.2456 6.97059 34.5817 8.88824 35.549 11.0647C36.5163 13.2294 37 15.5412 37 18C37 20.4588 36.5163 22.7765 35.549 24.9529C34.5817 27.1176 33.2456 29.0294 31.5407 30.6882C29.8358 32.3471 27.8649 33.6471 25.6279 34.5882C23.4031 35.5294 21.0271 36 18.5 36ZM9.95735 27.2471H27.0426C27.4175 27.2471 27.6956 27.1412 27.877 26.9294C28.0583 26.7059 28.149 26.4294 28.149 26.1C28.149 25.6059 27.9495 24.9647 27.5505 24.1765C27.1636 23.3765 26.5711 22.5765 25.773 21.7765C24.9871 20.9765 23.9895 20.3059 22.7804 19.7647C21.5712 19.2235 20.1444 18.9529 18.5 18.9529C16.8556 18.9529 15.4288 19.2235 14.2196 19.7647C13.0105 20.3059 12.0069 20.9765 11.2088 21.7765C10.4229 22.5765 9.83039 23.3765 9.43137 24.1765C9.04444 24.9647 8.85098 25.6059 8.85098 26.1C8.85098 26.4294 8.94167 26.7059 9.12304 26.9294C9.30441 27.1412 9.58252 27.2471 9.95735 27.2471ZM18.5 17.4529C19.3827 17.4647 20.1868 17.2471 20.9123 16.8C21.6377 16.3529 22.2181 15.7412 22.6534 14.9647C23.0887 14.1882 23.3064 13.3176 23.3064 12.3529C23.3064 11.4471 23.0887 10.6176 22.6534 9.86471C22.2181 9.1 21.6377 8.49412 20.9123 8.04706C20.1868 7.58824 19.3827 7.35882 18.5 7.35882C17.6173 7.35882 16.8132 7.58824 16.0877 8.04706C15.3623 8.49412 14.7819 9.1 14.3466 9.86471C13.9113 10.6176 13.6936 11.4471 13.6936 12.3529C13.6936 13.3176 13.9113 14.1882 14.3466 14.9647C14.7819 15.7294 15.3623 16.3353 16.0877 16.7824C16.8132 17.2294 17.6173 17.4529 18.5 17.4529Z" fill="white"/>
</svg>
