<svg width="19" height="19" viewBox="0 0 19 19" fill="none" xmlns="http://www.w3.org/2000/svg">
<path d="M9.5 19C8.20229 19 6.97908 18.7516 5.83039 18.2549C4.68791 17.7582 3.67892 17.0721 2.80343 16.1966C1.92794 15.3211 1.24183 14.3121 0.745098 13.1696C0.248366 12.0209 0 10.7977 0 9.5C0 8.20229 0.248366 6.98219 0.745098 5.83971C1.24183 4.69101 1.92484 3.67892 2.79412 2.80343C3.66961 1.92794 4.6786 1.24183 5.82108 0.745098C6.96977 0.248366 8.19297 0 9.49069 0C10.7884 0 12.0116 0.248366 13.1603 0.745098C14.309 1.24183 15.3211 1.92794 16.1966 2.80343C17.0721 3.67892 17.7582 4.69101 18.2549 5.83971C18.7516 6.98219 19 8.20229 19 9.5C19 10.7977 18.7516 12.0209 18.2549 13.1696C17.7582 14.3121 17.0721 15.3211 16.1966 16.1966C15.3211 17.0721 14.309 17.7582 13.1603 18.2549C12.0178 18.7516 10.7977 19 9.5 19ZM5.48578 13.477H13.5142C13.9985 13.477 14.3618 13.359 14.6039 13.123C14.8461 12.8809 14.9672 12.5176 14.9672 12.0333V8.46618H4.03284V12.0333C4.03284 12.5176 4.15392 12.8809 4.39608 13.123C4.64444 13.359 5.00768 13.477 5.48578 13.477ZM5.93284 12.0333C5.6348 12.0333 5.48578 11.8843 5.48578 11.5863V10.7294C5.48578 10.4314 5.6348 10.2824 5.93284 10.2824H7.07843C7.38268 10.2824 7.5348 10.4314 7.5348 10.7294V11.5863C7.5348 11.8843 7.38268 12.0333 7.07843 12.0333H5.93284ZM4.03284 7.3951H14.9672V6.97598C14.9672 6.49167 14.8461 6.13154 14.6039 5.89559C14.3618 5.65343 13.9985 5.53235 13.5142 5.53235H5.48578C5.00768 5.53235 4.64444 5.65343 4.39608 5.89559C4.15392 6.13154 4.03284 6.49167 4.03284 6.97598V7.3951Z" fill="#19922C"/>
</svg>
