<svg width="24" height="16" viewBox="0 0 24 16" fill="none" xmlns="http://www.w3.org/2000/svg">
<path d="M1.35202 9.61287C1.17068 9.74765 0.992466 9.81811 0.817378 9.82424C0.648542 9.83037 0.498466 9.7936 0.36715 9.71396C0.235834 9.62818 0.135783 9.5179 0.0669982 9.38311C0.00446655 9.24832 -0.0142929 9.10741 0.0107197 8.96037C0.0419855 8.81333 0.132656 8.68466 0.282732 8.57438L10.8162 0.459506C11.2101 0.153169 11.6041 0 11.998 0C12.3982 0 12.7953 0.153169 13.1893 0.459506L23.7227 8.57438C23.8728 8.68466 23.9603 8.81333 23.9853 8.96037C24.0166 9.10741 23.9979 9.24832 23.9291 9.38311C23.8665 9.5179 23.7665 9.62818 23.6289 9.71396C23.4976 9.7936 23.3475 9.83037 23.1787 9.82424C23.0099 9.81811 22.8348 9.74765 22.6534 9.61287L12.4295 1.75531C12.2919 1.65116 12.1481 1.59908 11.998 1.59908C11.848 1.59908 11.7104 1.65116 11.5853 1.75531L1.35202 9.61287ZM3.85641 16C3.20609 16 2.69958 15.8285 2.3369 15.4854C1.98047 15.1423 1.80225 14.6582 1.80225 14.0333V10.7524C2.07739 10.6605 2.34002 10.5135 2.59015 10.3113L11.998 3.08788L21.4059 10.3113C21.6623 10.5135 21.9281 10.6605 22.2032 10.7524V14.0333C22.2032 14.6582 22.0219 15.1423 21.6592 15.4854C21.3027 15.8285 20.7994 16 20.149 16H3.85641ZM9.5593 14.5663H14.4461V10.4767C14.4461 10.2868 14.3867 10.1336 14.2679 10.0172C14.1491 9.90082 13.9959 9.84262 13.8083 9.84262H10.2065C10.0189 9.84262 9.86258 9.90082 9.73751 10.0172C9.6187 10.1336 9.5593 10.2868 9.5593 10.4767V14.5663Z" fill="#19922C"/>
</svg>
