<svg width="22" height="17" viewBox="0 0 22 17" fill="none" xmlns="http://www.w3.org/2000/svg">
<path d="M4.36095 5.76442C4.44153 5.44061 4.53452 5.09847 4.6399 4.73801C4.75148 4.37754 4.86616 4.04456 4.98394 3.73908C5.10172 3.42749 5.2102 3.18922 5.30938 3.02426C5.42716 2.81653 5.56044 2.66379 5.70921 2.56604C5.86419 2.46828 6.06255 2.40108 6.30431 2.36442C6.63905 2.31554 7.19386 2.27889 7.96872 2.25445C8.74359 2.2239 9.75401 2.20863 11 2.20863C12.246 2.20863 13.2564 2.2239 14.0313 2.25445C14.8061 2.27889 15.3609 2.31554 15.6957 2.36442C15.9374 2.40108 16.1327 2.46828 16.2815 2.56604C16.4365 2.66379 16.5728 2.81653 16.6906 3.02426C16.7898 3.18922 16.8983 3.42749 17.0161 3.73908C17.1338 4.04456 17.2485 4.37754 17.3601 4.73801C17.4717 5.09847 17.5647 5.44061 17.6391 5.76442C17.6762 5.92938 17.6607 6.04546 17.5926 6.11267C17.5244 6.17987 17.4035 6.20737 17.2299 6.19515C16.734 6.15849 16.1916 6.12794 15.6027 6.1035C15.02 6.07296 14.3536 6.05157 13.6035 6.03935C12.8597 6.02102 11.9918 6.01186 11 6.01186C10.0082 6.01186 9.13722 6.02102 8.38715 6.03935C7.64328 6.05157 6.97999 6.07296 6.39729 6.1035C5.8146 6.12794 5.27529 6.15849 4.77937 6.19515C4.59961 6.20737 4.47563 6.17987 4.40744 6.11267C4.33925 6.04546 4.32375 5.92938 4.36095 5.76442ZM4.29586 12.0054C3.86813 12.0054 3.51169 11.8649 3.22654 11.5838C2.94139 11.2967 2.79882 10.9454 2.79882 10.5299C2.79882 10.1084 2.94139 9.75705 3.22654 9.47601C3.51169 9.19497 3.86813 9.05445 4.29586 9.05445C4.72358 9.05445 5.08002 9.19497 5.36517 9.47601C5.65032 9.75705 5.7929 10.1084 5.7929 10.5299C5.7929 10.9454 5.65032 11.2967 5.36517 11.5838C5.08002 11.8649 4.72358 12.0054 4.29586 12.0054ZM8.54522 11.6388C8.22288 11.6388 7.96252 11.5411 7.76416 11.3456C7.56579 11.15 7.46661 10.8934 7.46661 10.5757C7.46661 10.2642 7.56579 10.0106 7.76416 9.81509C7.96252 9.61959 8.22288 9.52183 8.54522 9.52183H13.4641C13.7802 9.52183 14.0375 9.61959 14.2358 9.81509C14.4342 10.0106 14.5334 10.2642 14.5334 10.5757C14.5334 10.8934 14.4342 11.15 14.2358 11.3456C14.0375 11.5411 13.7802 11.6388 13.4641 11.6388H8.54522ZM17.7041 12.0054C17.2826 12.0054 16.9293 11.8649 16.6441 11.5838C16.359 11.2967 16.2164 10.9454 16.2164 10.5299C16.2164 10.1084 16.359 9.75705 16.6441 9.47601C16.9293 9.19497 17.2826 9.05445 17.7041 9.05445C18.1319 9.05445 18.4883 9.19497 18.7735 9.47601C19.0586 9.75705 19.2012 10.1084 19.2012 10.5299C19.2012 10.9454 19.0586 11.2967 18.7735 11.5838C18.4883 11.8649 18.1319 12.0054 17.7041 12.0054ZM11 14.4798C10.2189 14.4798 9.39448 14.4706 8.52663 14.4523C7.65878 14.434 6.80642 14.4095 5.96957 14.379C5.13271 14.3423 4.36405 14.3026 3.66357 14.2598C2.96929 14.2171 2.40209 14.1712 1.96196 14.1224C1.33587 14.0491 0.852353 13.8444 0.511412 13.5084C0.170471 13.1723 0 12.7111 0 12.1245V10.5116C0 9.99227 0.0371936 9.54016 0.111581 9.15526C0.192167 8.76424 0.316145 8.40072 0.483516 8.06469C0.657086 7.72255 0.889546 7.36819 1.1809 7.00162L1.96196 6.0027C2.07354 5.45283 2.20992 4.90907 2.37109 4.37143C2.53226 3.83378 2.69034 3.35112 2.84531 2.92345C3.00028 2.49578 3.13356 2.16891 3.24514 1.94286C3.4931 1.42354 3.84953 1.01114 4.31445 0.70566C4.77937 0.39407 5.32178 0.201617 5.94167 0.128302C6.14624 0.103863 6.49338 0.0824798 6.98309 0.0641509C7.47901 0.0458221 8.07101 0.0305481 8.75909 0.0183288C9.45337 0.00610961 10.2003 0 11 0C11.7997 0 12.5435 0.00610961 13.2316 0.0183288C13.9259 0.0244385 14.5179 0.0366577 15.0076 0.0549865C15.5035 0.0733154 15.8569 0.0977538 16.0676 0.128302C16.6813 0.207727 17.2206 0.40018 17.6855 0.70566C18.1567 1.01114 18.5162 1.42354 18.7642 1.94286C18.8695 2.16891 18.9997 2.49578 19.1547 2.92345C19.3159 3.35112 19.4739 3.83378 19.6289 4.37143C19.7901 4.90907 19.9265 5.45283 20.038 6.0027L20.8284 7.00162C21.1136 7.36819 21.3429 7.72255 21.5165 8.06469C21.6901 8.40072 21.814 8.76424 21.8884 9.15526C21.9628 9.54016 22 9.99227 22 10.5116V12.1245C22 12.7111 21.8295 13.1723 21.4886 13.5084C21.1538 13.8444 20.6703 14.0491 20.038 14.1224C19.5979 14.1712 19.0276 14.2171 18.3271 14.2598C17.6329 14.3026 16.8673 14.3423 16.0304 14.379C15.1936 14.4095 14.3412 14.434 13.4734 14.4523C12.6055 14.4706 11.7811 14.4798 11 14.4798ZM11 13.2792C11.7935 13.2792 12.6179 13.2701 13.4734 13.2518C14.335 13.2334 15.1719 13.209 15.9839 13.1784C16.796 13.1479 17.5275 13.1143 18.1784 13.0776C18.8292 13.041 19.3407 12.9982 19.7126 12.9493C20.1093 12.9066 20.3852 12.7844 20.5402 12.5827C20.7013 12.3811 20.7819 12.1062 20.7819 11.758V10.5116C20.7819 10.09 20.754 9.73261 20.6982 9.43935C20.6486 9.13998 20.5556 8.85894 20.4193 8.59623C20.2891 8.33351 20.1031 8.04636 19.8614 7.73477L18.9036 6.50674C18.8416 6.17682 18.7611 5.82246 18.6619 5.44367C18.5627 5.06487 18.4542 4.68913 18.3364 4.31644C18.2187 3.94376 18.1009 3.59856 17.9831 3.28086C17.8653 2.96316 17.7568 2.69739 17.6576 2.48356C17.5027 2.17197 17.2795 1.92147 16.9882 1.73208C16.703 1.53657 16.3404 1.41132 15.9003 1.35633C15.7205 1.3319 15.3981 1.30746 14.9332 1.28302C14.4745 1.25858 13.9073 1.24025 13.2316 1.22803C12.5621 1.2097 11.8183 1.20054 11 1.20054C10.1879 1.20054 9.44717 1.2097 8.77768 1.22803C8.1082 1.24025 7.541 1.25858 7.07608 1.28302C6.61116 1.30746 6.27952 1.3319 6.08115 1.35633C5.65962 1.40521 5.30318 1.5274 5.01183 1.72291C4.72048 1.91231 4.50042 2.16586 4.35165 2.48356C4.25247 2.69739 4.14088 2.96316 4.01691 3.28086C3.89913 3.59856 3.78135 3.94376 3.66357 4.31644C3.54579 4.68913 3.43731 5.06487 3.33812 5.44367C3.23894 5.82246 3.15835 6.17682 3.09637 6.50674L2.14793 7.73477C1.90617 8.04636 1.7171 8.33351 1.58073 8.59623C1.45055 8.85894 1.35757 9.13998 1.30178 9.43935C1.24598 9.73261 1.21809 10.09 1.21809 10.5116V11.758C1.21809 12.1062 1.29868 12.3811 1.45985 12.5827C1.62102 12.7783 1.89687 12.9004 2.2874 12.9493C2.66554 12.9982 3.18005 13.044 3.83094 13.0868C4.48183 13.1234 5.2102 13.1571 6.01606 13.1876C6.82812 13.212 7.66498 13.2334 8.52663 13.2518C9.38828 13.2701 10.2127 13.2792 11 13.2792ZM1.7109 17C1.35757 17 1.06312 16.8839 0.827557 16.6518C0.591998 16.4196 0.474218 16.1324 0.474218 15.7903V13.1051L4.0355 13.6092V15.7903C4.0355 16.1324 3.91772 16.4196 3.68216 16.6518C3.4466 16.8839 3.15216 17 2.79882 17H1.7109ZM19.2012 17C18.854 17 18.5627 16.8839 18.3271 16.6518C18.0916 16.4196 17.9738 16.1324 17.9738 15.7903V13.6092L21.5258 13.1051V15.7903C21.5258 16.1324 21.408 16.4196 21.1724 16.6518C20.9369 16.8839 20.6455 17 20.2984 17H19.2012Z" fill="#19922C"/>
</svg>
