<svg width="63" height="49" viewBox="0 0 63 49" fill="none" xmlns="http://www.w3.org/2000/svg">
<path d="M12.4882 16.6151C12.7189 15.6818 12.9852 14.6956 13.287 13.6566C13.6065 12.6176 13.9349 11.6579 14.2722 10.7774C14.6095 9.87925 14.9201 9.19245 15.2041 8.71698C15.5414 8.11824 15.9231 7.67799 16.3491 7.39623C16.7929 7.11447 17.3609 6.92075 18.0533 6.81509C19.0118 6.67421 20.6006 6.56855 22.8195 6.49811C25.0385 6.41006 27.932 6.36604 31.5 6.36604C35.068 6.36604 37.9615 6.41006 40.1805 6.49811C42.3994 6.56855 43.9882 6.67421 44.9467 6.81509C45.6391 6.92075 46.1982 7.11447 46.6243 7.39623C47.068 7.67799 47.4586 8.11824 47.7959 8.71698C48.0799 9.19245 48.3905 9.87925 48.7278 10.7774C49.0651 11.6579 49.3935 12.6176 49.713 13.6566C50.0325 14.6956 50.2988 15.6818 50.5118 16.6151C50.6183 17.0906 50.574 17.4252 50.3787 17.6189C50.1834 17.8126 49.8373 17.8918 49.3402 17.8566C47.9201 17.7509 46.3669 17.6629 44.6805 17.5925C43.0118 17.5044 41.1035 17.4428 38.9556 17.4075C36.8254 17.3547 34.3402 17.3283 31.5 17.3283C28.6598 17.3283 26.1657 17.3547 24.0178 17.4075C21.8876 17.4428 19.9882 17.5044 18.3195 17.5925C16.6509 17.6629 15.1065 17.7509 13.6864 17.8566C13.1716 17.8918 12.8166 17.8126 12.6213 17.6189C12.426 17.4252 12.3817 17.0906 12.4882 16.6151ZM12.3018 34.6038C11.0769 34.6038 10.0562 34.1987 9.23965 33.3887C8.42308 32.561 8.01479 31.5484 8.01479 30.3509C8.01479 29.1359 8.42308 28.1233 9.23965 27.3132C10.0562 26.5031 11.0769 26.0981 12.3018 26.0981C13.5266 26.0981 14.5473 26.5031 15.3639 27.3132C16.1805 28.1233 16.5888 29.1359 16.5888 30.3509C16.5888 31.5484 16.1805 32.561 15.3639 33.3887C14.5473 34.1987 13.5266 34.6038 12.3018 34.6038ZM24.4704 33.5472C23.5473 33.5472 22.8018 33.2654 22.2337 32.7019C21.6657 32.1384 21.3817 31.3987 21.3817 30.483C21.3817 29.5849 21.6657 28.8541 22.2337 28.2906C22.8018 27.727 23.5473 27.4453 24.4704 27.4453H38.5562C39.4615 27.4453 40.1982 27.727 40.7663 28.2906C41.3343 28.8541 41.6183 29.5849 41.6183 30.483C41.6183 31.3987 41.3343 32.1384 40.7663 32.7019C40.1982 33.2654 39.4615 33.5472 38.5562 33.5472H24.4704ZM50.6982 34.6038C49.4911 34.6038 48.4793 34.1987 47.6627 33.3887C46.8462 32.561 46.4379 31.5484 46.4379 30.3509C46.4379 29.1359 46.8462 28.1233 47.6627 27.3132C48.4793 26.5031 49.4911 26.0981 50.6982 26.0981C51.9231 26.0981 52.9438 26.5031 53.7604 27.3132C54.5769 28.1233 54.9852 29.1359 54.9852 30.3509C54.9852 31.5484 54.5769 32.561 53.7604 33.3887C52.9438 34.1987 51.9231 34.6038 50.6982 34.6038ZM31.5 41.7359C29.2633 41.7359 26.9024 41.7094 24.4172 41.6566C21.932 41.6038 19.4911 41.5333 17.0947 41.4453C14.6982 41.3396 12.497 41.2252 10.4911 41.1019C8.50296 40.9786 6.8787 40.8465 5.61834 40.7057C3.82544 40.4943 2.44083 39.9044 1.4645 38.9359C0.488166 37.9673 0 36.6377 0 34.9472V30.2981C0 28.8013 0.106509 27.4981 0.319527 26.3887C0.550296 25.2616 0.905325 24.2138 1.38462 23.2453C1.88166 22.2591 2.54734 21.2377 3.38166 20.1811L5.61834 17.3019C5.93787 15.717 6.3284 14.1497 6.78994 12.6C7.25148 11.0503 7.70414 9.65912 8.14793 8.42642C8.59172 7.19371 8.97337 6.25157 9.2929 5.6C10.003 4.10314 11.0237 2.91447 12.355 2.03396C13.6864 1.13585 15.2396 0.581132 17.0148 0.369811C17.6006 0.299371 18.5947 0.237736 19.997 0.184906C21.4172 0.132075 23.1124 0.0880503 25.0828 0.0528302C27.071 0.0176101 29.2101 0 31.5 0C33.7899 0 35.9201 0.0176101 37.8905 0.0528302C39.8787 0.0704403 41.574 0.10566 42.9763 0.158491C44.3965 0.211321 45.4083 0.281761 46.0118 0.369811C47.7692 0.598742 49.3136 1.15346 50.645 2.03396C51.9941 2.91447 53.0237 4.10314 53.7337 5.6C54.0355 6.25157 54.4083 7.19371 54.8521 8.42642C55.3136 9.65912 55.7663 11.0503 56.2101 12.6C56.6716 14.1497 57.0621 15.717 57.3817 17.3019L59.645 20.1811C60.4615 21.2377 61.1183 22.2591 61.6154 23.2453C62.1124 24.2138 62.4675 25.2616 62.6805 26.3887C62.8935 27.4981 63 28.8013 63 30.2981V34.9472C63 36.6377 62.5118 37.9673 61.5355 38.9359C60.5769 39.9044 59.1923 40.4943 57.3817 40.7057C56.1213 40.8465 54.4882 40.9786 52.4823 41.1019C50.4941 41.2252 48.3018 41.3396 45.9053 41.4453C43.5089 41.5333 41.068 41.6038 38.5828 41.6566C36.0976 41.7094 33.7367 41.7359 31.5 41.7359ZM31.5 38.2755C33.7722 38.2755 36.1331 38.2491 38.5828 38.1962C41.0503 38.1434 43.4467 38.073 45.7722 37.9849C48.0976 37.8969 50.1923 37.8 52.0562 37.6943C53.9201 37.5887 55.3846 37.4654 56.4497 37.3245C57.5858 37.2013 58.3757 36.8491 58.8195 36.2679C59.2811 35.6868 59.5118 34.8943 59.5118 33.8906V30.2981C59.5118 29.083 59.432 28.0528 59.2722 27.2075C59.1302 26.3447 58.8639 25.5346 58.4734 24.7774C58.1006 24.0201 57.568 23.1925 56.8757 22.2943L54.1331 18.7547C53.9556 17.8038 53.7249 16.7824 53.4408 15.6906C53.1568 14.5987 52.8462 13.5157 52.5089 12.4415C52.1716 11.3673 51.8343 10.3723 51.497 9.4566C51.1598 8.54088 50.8491 7.77484 50.5651 7.15849C50.1213 6.26038 49.4823 5.53836 48.6479 4.99245C47.8314 4.42893 46.7929 4.06792 45.5325 3.90943C45.0178 3.83899 44.0947 3.76855 42.7633 3.69811C41.4497 3.62767 39.8254 3.57484 37.8905 3.53962C35.9734 3.48679 33.8432 3.46038 31.5 3.46038C29.1746 3.46038 27.0533 3.48679 25.1361 3.53962C23.2189 3.57484 21.5947 3.62767 20.2633 3.69811C18.932 3.76855 17.9822 3.83899 17.4142 3.90943C16.2071 4.05031 15.1864 4.40252 14.3521 4.96604C13.5178 5.51195 12.8876 6.24277 12.4615 7.15849C12.1775 7.77484 11.858 8.54088 11.503 9.4566C11.1657 10.3723 10.8284 11.3673 10.4911 12.4415C10.1538 13.5157 9.84319 14.5987 9.55917 15.6906C9.27515 16.7824 9.04438 17.8038 8.86686 18.7547L6.15089 22.2943C5.45858 23.1925 4.91716 24.0201 4.52663 24.7774C4.15385 25.5346 3.88757 26.3447 3.72781 27.2075C3.56805 28.0528 3.48817 29.083 3.48817 30.2981V33.8906C3.48817 34.8943 3.71894 35.6868 4.18047 36.2679C4.64201 36.8314 5.43195 37.1837 6.5503 37.3245C7.63314 37.4654 9.10651 37.5975 10.9704 37.7208C12.8343 37.8264 14.9201 37.9233 17.2278 38.0113C19.5533 38.0818 21.9497 38.1434 24.4172 38.1962C26.8846 38.2491 29.2456 38.2755 31.5 38.2755ZM4.89941 49C3.88757 49 3.04438 48.6654 2.36982 47.9962C1.69527 47.327 1.35799 46.4994 1.35799 45.5132V37.7736L11.5562 39.2264V45.5132C11.5562 46.4994 11.2189 47.327 10.5444 47.9962C9.86982 48.6654 9.02663 49 8.01479 49H4.89941ZM54.9852 49C53.9911 49 53.1568 48.6654 52.4823 47.9962C51.8077 47.327 51.4704 46.4994 51.4704 45.5132V39.2264L61.642 37.7736V45.5132C61.642 46.4994 61.3047 47.327 60.6302 47.9962C59.9556 48.6654 59.1213 49 58.1272 49H54.9852Z" fill="#19922C"/>
</svg>
