<svg width="64" height="42" viewBox="0 0 64 42" fill="none" xmlns="http://www.w3.org/2000/svg">
<path d="M3.60539 25.2338C3.12182 25.5876 2.64658 25.7725 2.17967 25.7886C1.72945 25.8047 1.32924 25.7082 0.979067 25.4991C0.62889 25.274 0.362088 24.9845 0.178662 24.6307C0.0119108 24.2769 -0.0381145 23.9069 0.0285859 23.521C0.111961 23.135 0.35375 22.7972 0.753953 22.5078L28.8432 1.2062C29.8937 0.402068 30.9442 0 31.9948 0C33.062 0 34.1208 0.402068 35.1714 1.2062L63.2606 22.5078C63.6608 22.7972 63.8942 23.135 63.9609 23.521C64.0443 23.9069 63.9943 24.2769 63.8108 24.6307C63.6441 24.9845 63.3773 25.274 63.0104 25.4991C62.6603 25.7082 62.2601 25.8047 61.8098 25.7886C61.3596 25.7725 60.8927 25.5876 60.4091 25.2338L33.1453 4.6077C32.7785 4.33429 32.395 4.19759 31.9948 4.19759C31.5945 4.19759 31.2277 4.33429 30.8942 4.6077L3.60539 25.2338ZM10.2838 42C8.54956 42 7.19888 41.5497 6.23172 40.6491C5.28124 39.7484 4.806 38.4779 4.806 36.8375V28.2252C5.53971 27.9839 6.24006 27.5979 6.90706 27.0672L31.9948 8.10569L57.0824 27.0672C57.7661 27.5979 58.4748 27.9839 59.2085 28.2252V36.8375C59.2085 38.4779 58.7249 39.7484 57.7578 40.6491C56.8073 41.5497 55.465 42 53.7307 42H10.2838ZM25.4915 38.2366H38.5231V27.5014C38.5231 27.0029 38.3646 26.6008 38.0478 26.2952C37.731 25.9897 37.3224 25.8369 36.8222 25.8369H27.2173C26.7171 25.8369 26.3002 25.9897 25.9667 26.2952C25.6499 26.6008 25.4915 27.0029 25.4915 27.5014V38.2366Z" fill="#19922C"/>
</svg>
