<svg width="49" height="56" viewBox="0 0 49 56" fill="none" xmlns="http://www.w3.org/2000/svg">
<path d="M16.8307 10.8233C15.8292 10.8233 14.9196 10.5889 14.1017 10.1202C13.2838 9.63468 12.6329 8.98176 12.1488 8.16143C11.6648 7.34111 11.4228 6.4287 11.4228 5.42421C11.4228 4.41973 11.6648 3.50732 12.1488 2.687C12.6329 1.86667 13.2838 1.21375 14.1017 0.728251C14.9196 0.24275 15.8292 0 16.8307 0C17.8322 0 18.7418 0.24275 19.5597 0.728251C20.3776 1.21375 21.0285 1.86667 21.5126 2.687C21.9966 3.50732 22.2386 4.41973 22.2386 5.42421C22.2386 6.4287 21.9966 7.34111 21.5126 8.16143C21.0285 8.98176 20.3776 9.63468 19.5597 10.1202C18.7418 10.5889 17.8322 10.8233 16.8307 10.8233ZM8.19302 56C7.39184 56 6.77427 55.6903 6.3403 55.0709C5.92302 54.4514 5.83122 53.7483 6.0649 52.9614C6.09828 52.8442 6.20677 52.3755 6.39037 51.5552C6.59067 50.7348 6.84104 49.6969 7.14148 48.4413C7.44192 47.1856 7.75905 45.8296 8.09287 44.3731C8.44339 42.9166 8.76886 41.4936 9.0693 40.104C9.38644 38.6978 9.66184 37.4505 9.89552 36.3623C10.1292 35.2574 10.2878 34.4454 10.3712 33.9265C10.4881 33.2401 10.5799 32.4114 10.6466 31.4404C10.7134 30.4694 10.7635 29.4565 10.7968 28.4018C10.8469 27.3471 10.8803 26.3426 10.897 25.3883C10.9137 24.4341 10.922 23.6305 10.922 22.9776C10.922 22.7767 10.8302 22.6511 10.6466 22.6009C10.4797 22.5339 10.3378 22.5842 10.221 22.7516C9.75364 23.4212 9.21118 24.1913 8.59361 25.0619C7.97603 25.9157 7.36681 26.7695 6.76592 27.6233C6.16504 28.4771 5.63093 29.2221 5.16357 29.8583C4.71291 30.4945 4.39578 30.913 4.21218 31.1139C3.84497 31.5324 3.38597 31.7836 2.83516 31.8673C2.30104 31.951 1.79196 31.8505 1.30792 31.5659C0.656964 31.2311 0.248031 30.7707 0.081119 30.1848C-0.0691014 29.5821 -0.0106823 29.038 0.256376 28.5525C0.356523 28.3683 0.465016 28.1842 0.581854 28C0.715383 27.7991 0.848912 27.6066 0.982441 27.4224L7.46695 17.8547C8.15129 16.8335 8.91074 16.0048 9.7453 15.3686C10.5965 14.7157 11.5897 14.2386 12.7247 13.9372C13.8764 13.6191 15.245 13.4601 16.8307 13.4601C18.4163 13.4601 19.7767 13.6191 20.9117 13.9372C22.0467 14.2386 23.0315 14.7157 23.866 15.3686C24.7173 16.0048 25.4934 16.8335 26.1944 17.8547L30.0751 23.53C29.0236 23.5468 28.164 23.8984 27.4963 24.5848C26.8287 25.2544 26.4198 25.9659 26.2695 26.7193L23.4404 22.7516C23.3069 22.5842 23.1566 22.5256 22.9897 22.5758C22.8228 22.626 22.7394 22.7516 22.7394 22.9525C22.7394 23.6054 22.7477 24.4173 22.7644 25.3883C22.7811 26.3426 22.8061 27.3471 22.8395 28.4018C22.8896 29.4565 22.948 30.4694 23.0148 31.4404C23.0815 32.4114 23.165 33.2401 23.2651 33.9265C23.3486 34.4454 23.5072 35.2574 23.7408 36.3623C23.9745 37.4505 24.2499 38.6978 24.567 40.104C24.8842 41.4936 25.2096 42.9166 25.5435 44.3731C25.894 45.8296 26.2111 47.1856 26.4949 48.4413C26.7953 49.6969 27.0457 50.7348 27.246 51.5552C27.4463 52.3755 27.5631 52.8442 27.5965 52.9614C27.8302 53.7483 27.73 54.4514 27.296 55.0709C26.8788 55.6903 26.2695 56 25.4684 56C24.2666 56 23.4654 55.2634 23.0648 53.7901C22.8979 53.1707 22.6726 52.3001 22.3888 51.1785C22.1051 50.0735 21.788 48.8514 21.4374 47.5121C21.1036 46.1728 20.7698 44.8502 20.436 43.5444C20.1022 42.2218 19.7934 41.0332 19.5096 39.9785C19.2259 38.9238 19.0005 38.1453 18.8336 37.643C18.5499 36.739 18.2745 36.0945 18.0074 35.7094C17.7404 35.3244 17.3481 35.1318 16.8307 35.1318C16.3133 35.1318 15.921 35.3244 15.654 35.7094C15.3869 36.0945 15.1115 36.739 14.8278 37.643C14.6608 38.1453 14.4355 38.9238 14.1518 39.9785C13.868 41.0332 13.5509 42.2218 13.2004 43.5444C12.8665 44.8502 12.5327 46.1728 12.1989 47.5121C11.8651 48.8514 11.5563 50.0735 11.2725 51.1785C10.9888 52.3001 10.7635 53.1707 10.5965 53.7901C10.196 55.2634 9.39478 56 8.19302 56ZM37.8866 28.1758C36.785 28.1758 35.8419 27.7824 35.0574 26.9955C34.2729 26.2087 33.8807 25.2628 33.8807 24.1578C33.8807 23.0529 34.2729 22.107 35.0574 21.3202C35.8419 20.5333 36.785 20.1399 37.8866 20.1399C38.9882 20.1399 39.9312 20.5333 40.7157 21.3202C41.5169 22.107 41.9175 23.0529 41.9175 24.1578C41.9175 25.2628 41.5169 26.2087 40.7157 26.9955C39.9312 27.7824 38.9882 28.1758 37.8866 28.1758ZM32.3284 56C31.6107 56 31.0682 55.7238 30.701 55.1713C30.3338 54.6188 30.2337 54.0161 30.4006 53.3632C30.434 53.2795 30.5341 52.8861 30.701 52.183C30.8679 51.4966 31.0682 50.6427 31.3019 49.6215C31.5356 48.617 31.7776 47.5707 32.028 46.4825C32.2784 45.4111 32.4953 44.4401 32.6789 43.5695C32.8792 42.699 33.0128 42.0628 33.0795 41.661C33.163 41.142 33.2214 40.4975 33.2548 39.7274C33.3049 38.9405 33.3382 38.1788 33.3549 37.4422C33.3716 36.7055 33.38 36.1279 33.38 35.7094C33.38 35.3411 33.3215 35.0314 33.2047 34.7803C33.1046 34.5124 32.9543 34.2529 32.754 34.0018C32.1532 33.2484 31.5272 32.4951 30.8763 31.7417C30.242 30.9883 29.6912 30.3354 29.2239 29.783C28.7565 29.2305 28.4728 28.8789 28.3726 28.7283C28.0889 28.293 27.9804 27.841 28.0471 27.3722C28.1306 26.8867 28.3476 26.4682 28.6981 26.1166C29.0653 25.6813 29.5327 25.4637 30.1002 25.4637C30.6677 25.4469 31.1183 25.6143 31.4521 25.9659L34.106 28.8036C34.6735 29.4063 35.191 29.8499 35.6583 30.1345C36.1257 30.4024 36.785 30.5363 37.6362 30.5363H38.5125C39.6642 30.5363 40.7658 30.7791 41.8173 31.2646C42.8856 31.7333 43.7786 32.5202 44.4963 33.6251L48.6524 40.0538C48.9695 40.5226 49.0697 40.9746 48.9528 41.4099C48.836 41.8284 48.6106 42.1549 48.2768 42.3892C47.9263 42.6571 47.509 42.7659 47.025 42.7157C46.5409 42.6655 46.132 42.3976 45.7982 41.9121L42.5935 37.2664C42.4766 37.099 42.3264 37.0404 42.1428 37.0906C41.9759 37.1408 41.8925 37.2664 41.8925 37.4673C41.8925 37.9025 41.9175 38.5638 41.9676 39.4511C42.0176 40.3217 42.0928 41.0583 42.1929 41.661C42.2597 42.0628 42.3848 42.699 42.5684 43.5695C42.7687 44.4401 42.9857 45.4111 43.2194 46.4825C43.4698 47.5707 43.7118 48.617 43.9455 49.6215C44.1958 50.6427 44.4045 51.4966 44.5714 52.183C44.7383 52.8861 44.8301 53.2795 44.8468 53.3632C45.0137 54.0161 44.9136 54.6188 44.5463 55.1713C44.1791 55.7238 43.645 56 42.944 56C42.46 56 42.0343 55.8493 41.6671 55.548C41.2999 55.2634 41.0412 54.8114 40.891 54.1919C40.7575 53.7232 40.5739 53.02 40.3402 52.0825C40.1065 51.1617 39.8561 50.1656 39.5891 49.0942C39.322 48.0395 39.0717 47.0685 38.838 46.1812C38.621 45.2939 38.4457 44.6493 38.3122 44.2475C38.1453 43.7285 38.0201 43.4188 37.9367 43.3184C37.8699 43.2012 37.7697 43.1426 37.6362 43.1426C37.5027 43.1426 37.3942 43.2012 37.3107 43.3184C37.244 43.4188 37.1188 43.7285 36.9352 44.2475C36.8183 44.6493 36.6431 45.2939 36.4094 46.1812C36.1757 47.0685 35.9254 48.0395 35.6583 49.0942C35.4079 50.1656 35.1659 51.1617 34.9322 52.0825C34.6986 53.02 34.515 53.7232 34.3814 54.1919C34.2312 54.8114 33.9642 55.2634 33.5803 55.548C33.2131 55.8493 32.7958 56 32.3284 56Z" fill="#19922C"/>
</svg>
